<?xml version="1.0" encoding="utf-8"?>
<svg viewBox="131.228 279.642 463.812 138.62" style="enable-background:new 0 0 720 720;" xmlns="http://www.w3.org/2000/svg">
  <defs>
    <style type="text/css">
	.st0{font-family:'Arial-Black';}
	.st1{font-size:72px;}
	.st2{fill:none;stroke:#000000;stroke-width:5;stroke-miterlimit:10;}
</style>
  </defs>
  <text class="st0 st1" style="fill: rgb(34, 101, 146); white-space: pre; font-size: 72px;" x="135.78" y="367.829">east echo</text>
  <path d="M 553.156 284.325 C 552.124 285.141 551.891 286.899 552.657 287.777 C 552.923 288.06 554.85 289.535 556.948 291.012 C 574.079 303.163 585.289 321.721 587.586 341.724 C 588.051 345.645 588.051 353.685 587.586 357.61 C 585.224 378.208 572.95 397.896 555.186 409.542 C 552.491 411.3 551.726 412.463 552.323 413.907 C 552.723 414.941 553.422 415.446 554.753 415.634 C 555.685 415.792 556.251 415.541 558.679 413.94 C 574.646 403.357 586.722 386.623 591.446 368.473 C 596.735 348.158 593.21 326.619 581.564 308.44 C 576.045 299.773 566.663 290.448 557.814 284.795 C 555.616 283.383 554.452 283.258 553.156 284.325 Z" style="fill: rgb(34, 101, 146);"/>
  <path d="M 539.916 303.071 C 539.151 303.635 539.019 303.918 539.12 305.175 C 539.219 306.585 539.285 306.65 542.077 308.689 C 545.801 311.329 547.699 312.96 550.461 315.879 C 557.514 323.321 562.069 332.553 563.666 342.602 C 564.132 345.677 564.166 353.088 563.666 356.446 C 562.835 362.067 560.372 369.258 557.613 373.938 C 554.087 379.904 548.798 385.68 542.709 390.139 C 539.348 392.62 539.216 392.777 539.116 394.032 C 539.019 395.101 539.182 395.509 539.847 396.138 C 541.045 397.267 542.275 397.142 544.572 395.699 C 549.362 392.683 555.017 387.378 558.843 382.322 C 574.446 361.721 573.481 333.684 556.482 313.996 C 553.987 311.107 549.065 306.682 545.735 304.357 C 542.642 302.19 541.446 301.939 539.916 303.071 Z" style="fill: rgb(34, 101, 146);"/>
  <path d="M 526.477 321.973 C 525.978 322.443 525.746 323.103 525.746 323.887 C 525.746 325.174 526.047 325.49 529.338 327.938 C 531.634 329.603 534.296 332.522 535.992 335.159 C 541.581 343.889 541.581 355.444 536.025 364.141 C 534.228 366.903 531.368 369.95 528.641 371.928 C 527.242 372.934 526.044 373.938 525.945 374.219 C 525.179 376.072 526.512 378.083 528.507 378.083 C 531.535 378.083 538.986 370.893 542.213 364.894 C 547.069 355.79 547.269 344.644 542.745 335.505 C 540.216 330.449 536.624 326.179 532.332 323.103 C 529.305 320.968 527.775 320.654 526.477 321.973 Z" style="fill: rgb(34, 101, 146); stroke-width: 0px; stroke-miterlimit: 1;"/>
</svg>